<svg xmlns="http://www.w3.org/2000/svg" width="140" height="87.455" viewBox="0 0 140 87.455"><path d="M16.184-10.781V-.494H36.823V9.725H16.184V25.756H2.959V-21h36.67v10.219ZM75.363,16.672H55.592l-3.674,9.084H38.426L59.065-21H72.09L92.8,25.756H79.037ZM71.489,6.92,65.478-8.042,59.466,6.92ZM141.356-21,121.317,25.756H108.293L88.321-21h14.294L115.306,9.458,128.264-21ZM31.056,34.662v31.17H23.8L10.039,49.223V65.832H1.4V34.662H8.658l13.76,16.609V34.662ZM53.009,66.455a18.643,18.643,0,0,1-8.884-2.093,15.938,15.938,0,0,1,0-28.232,18.643,18.643,0,0,1,8.884-2.093,18.643,18.643,0,0,1,8.884,2.093,15.938,15.938,0,0,1,0,28.232A18.643,18.643,0,0,1,53.009,66.455Zm0-7.3a8.349,8.349,0,0,0,4.275-1.113A8.007,8.007,0,0,0,60.312,54.9a10.282,10.282,0,0,0,0-9.307,8.007,8.007,0,0,0-3.028-3.139,8.764,8.764,0,0,0-8.55,0,8.007,8.007,0,0,0-3.028,3.139,10.282,10.282,0,0,0,0,9.307,8.008,8.008,0,0,0,3.028,3.139A8.349,8.349,0,0,0,53.009,59.153Zm28.142-17.5H71.578V34.662H99.5v6.991H89.969V65.832H81.152Zm46.667,17.366v6.813H102.793V34.662H127.24v6.813H111.521v5.254h13.849v6.59H111.521v5.7Zm8.505,7.214a4.983,4.983,0,0,1-3.607-1.425,4.811,4.811,0,0,1-1.469-3.607,4.758,4.758,0,0,1,1.447-3.607,5.49,5.49,0,0,1,7.281,0A4.8,4.8,0,0,1,141.4,61.2a4.849,4.849,0,0,1-1.447,3.607A4.963,4.963,0,0,1,136.324,66.233Z" transform="translate(-1.4 21)"/></svg>